# AST/ASF file generated using VICON BodyLanguage
# -----------------------------------------------
:version 1.10
:name VICON
:units
  mass 1.0
  length 0.45
  angle deg
:documentation
   .ast/.asf automatically generated from VICON data using
   VICON BodyBuilder and BodyLanguage model FoxedUp or BRILLIANT.MOD
:root
   order TX TY TZ RX RY RZ
   axis XYZ
   position 0 0 0  
   orientation 0 0 0 
:bonedata
  begin
     id 1 
     name lhipjoint
     direction 0.734343 -0.627749 0.258209 
     length 2.5437 
     axis 0 0 0  XYZ
  end
  begin
     id 2 
     name lfemur
     direction 0.34202 -0.939693 0  
     length 6.7391  
     axis 0 0 20  XYZ
    dof rx ry rz
    limits (-160.0 20.0)
           (-70.0 70.0)
           (-60.0 70.0)
  end
  begin
     id 3 
     name ltibia
     direction 0.34202 -0.939693 0   
     length 7.21536   
     axis 0 0 20   XYZ
    dof rx
    limits (-10.0 170.0)
  end
  begin
     id 4 
     name lfoot
     direction 0.0489572 -0.134509 0.989702   
     length 1.61313   
     axis -90 7.62852e-016 20   XYZ
    dof rx rz
    limits (-45.0 90.0)
           (-70.0 20.0)
  end
  begin
     id 5 
     name ltoes
     direction 1.53451e-011 -4.21692e-011 1   
     length 0.823104   
     axis -90 7.62852e-016 20   XYZ
    dof rx
    limits (-90.0 20.0)
  end
  begin
     id 6 
     name rhipjoint
     direction -0.746398 -0.615468 0.253157   
     length 2.59446  
     axis 0 0 0  XYZ 
  end
  begin
     id 7 
     name rfemur
     direction -0.34202 -0.939693 0   
     length 6.7075   
     axis 0 0 -20   XYZ
    dof rx ry rz
    limits (-160.0 20.0)
           (-70.0 70.0)
           (-70.0 60.0)
  end
  begin
     id 8 
     name rtibia
     direction -0.34202 -0.939693 0   
     length 7.27262   
     axis 0 0 -20   XYZ
    dof rx
    limits (-10.0 170.0)
 end
 begin
     id 9 
     name rfoot
     direction -0.0455203 -0.125066 0.991104   
     length 1.91095  
     axis -90 -7.62852e-016 -20   XYZ
    dof rx rz
    limits (-45.0 90.0)
           (-20.0 70.0)
  end
  begin
     id 10 
     name rtoes
     direction -1.53601e-011 -4.21913e-011 1   
     length 0.969037   
     axis -90 -7.62852e-016 -20   XYZ
    dof rx
    limits (-90.0 20.0)
  end
  begin
     id 11 
     name lowerback
     direction 0.0181546 0.999122 -0.0377542   
     length 1.99916   
     axis 0 0 0   XYZ
    dof rx ry rz
    limits (-20.0 45.0)
           (-30.0 30.0)
           (-30.0 30.0)
  end
  begin
     id 12 
     name upperback
     direction 0.0203486 0.99589 0.0882534   
     length 1.951   
     axis 0 0 0   XYZ
    dof rx ry rz
    limits (-20.0 45.0)
           (-30.0 30.0)
           (-30.0 30.0)
  end
  begin
     id 13 
     name thorax
     direction 0.0131685 0.994241 0.106355   
     length 1.97461   
     axis 0 0 0   XYZ
    dof rx ry rz
    limits (-20.0 45.0)
           (-30.0 30.0)
           (-30.0 30.0)
  end
  begin
     id 14 
     name lowerneck
     direction -0.0281395 0.999325 0.023617   
     length 1.7959   
     axis 0 0 0   XYZ
    dof rx ry rz
    limits (-20.0 45.0)
           (-30.0 30.0)
           (-30.0 30.0)
  end
  begin
     id 15 
     name upperneck
     direction 0.0288721 0.991984 -0.123019   
     length 1.79917   
     axis 0 0 0   XYZ
    dof rx ry rz
    limits (-20.0 45.0)
           (-30.0 30.0)
           (-30.0 30.0)
  end
  begin
     id 16
     name head
     direction 0.0133797 0.998944 -0.0439492  
     length 1.80902  
     axis 0 0 0   XYZ
    dof rx ry rz
    limits (-20.0 45.0)
           (-30.0 30.0)
           (-30.0 30.0)
  end
  begin
     id 17 
     name lclavicle
     direction 0.919195 0.377107 0.113449  
     length 3.17815  
     axis 0 0 0   XYZ
    dof ry rz
    limits (-20.0 10.0)
           (0.0 20.0)
  end
  begin
     id 18 
     name lhumerus
     direction 1 -4.48959e-011 2.13129e-027   
     length 4.84137   
     axis 180 -30 -90   XYZ
    dof rx ry rz
    limits (-60.0 90.0)
           (-90.0 90.0)
           (-90.0 90.0)
  end
  begin
     id 19
     name lradius
     direction 1 -4.48957e-011 -6.30627e-028   
     length 3.2452   
     axis 180 -30 -90   XYZ
    dof rx
    limits (-10.0 170.0)
  end
  begin
     id 20
     name lwrist
     direction 1 -4.4901e-011 9.13299e-027   
     length 1.6226   
     axis -6.84618e-015 90 90   XYZ
    dof ry
    limits (-180.0 0.0)
 end
  begin
     id 21 
     name lhand
     direction 1 -4.48816e-011 1.82293e-026   
     length 0.521221   
     axis -1.16502e-014 90 90   XYZ
    dof rx rz
    limits (-90.0 90.0)
           (-45.0 45.0)
  end
  begin
     id 22 
     name lfingers
     direction 1 -4.49108e-011 3.65687e-026   
     length 0.420221   
     axis -2.33008e-014 90 90   XYZ
    dof rx
    limits (0.0 90.0)
  end
  begin
     id 23
     name lthumb
     direction 0.707107 -6.34943e-011 0.707107   
     length 0.603356   
     axis -90 45 5.69224e-014   XYZ
    dof rx rz
    limits (-45.0 45.0)
           (-45.0 45.0)
  end
  begin
     id 24 
     name rclavicle
     direction -0.90847 0.38596 0.160368   
     length 3.12973  
     axis 0 0 0   XYZ 
    dof ry rz
    limits (-10.0 20.0)
           (-20.0 0.0)
  end
  begin
     id 25 
     name rhumerus
     direction -1 -4.48974e-011 4.47268e-028  
     length 4.72284   
     axis 180 30 90   XYZ
    dof rx ry rz
    limits (-90.0 60.0)
           (-90.0 90.0)
           (-90.0 90.0)
  end
  begin
     id 26 
     name rradius
     direction -1 -4.48969e-011 3.43203e-027   
     length 3.23459   
     axis 180 30 90   XYZ
    dof rx
    limits (-10.0 170.0)
  end
  begin
     id 27 
     name rwrist
     direction -1 -4.48969e-011 9.12911e-027   
     length 1.6173   
     axis -6.84618e-015 -90 -90   XYZ
    dof ry
    limits (-180.0 0.0)
  end
  begin
     id 28
     name rhand
     direction -1 -4.49194e-011 1.83006e-026   
     length 0.307416   
     axis -1.16502e-014 -90 -90   XYZ
    dof rx rz
    limits (-90.0 90.0)
           (-45.0 45.0)
  end
  begin
     id 29
     name rfingers
     direction -1 -4.48423e-011 3.63103e-026   
     length 0.247847   
     axis -2.33008e-014 -90 -90   XYZ
    dof rx
    limits (0.0 90.0)
  end
  begin
     id 30
     name rthumb
     direction -0.707107 -6.34802e-011 0.707107   
     length 0.35586   
     axis -90 -45 -5.69224e-014   XYZ
    dof rx rz
    limits (-45.0 45.0)
           (-45.0 45.0)
  end
:hierarchy
  begin
    root lhipjoint rhipjoint lowerback
    lhipjoint lfemur
    lfemur ltibia
    ltibia lfoot
    lfoot ltoes
    rhipjoint rfemur
    rfemur rtibia
    rtibia rfoot
    rfoot rtoes
    lowerback upperback
    upperback thorax
    thorax lowerneck lclavicle rclavicle
    lowerneck upperneck
    upperneck head
    lclavicle lhumerus
    lhumerus lradius
    lradius lwrist
    lwrist lhand lthumb
    lhand lfingers
    rclavicle rhumerus
    rhumerus rradius
    rradius rwrist
    rwrist rhand rthumb
    rhand rfingers
  end

#!OML:ASF H:\Terrain\Patient Classification 1\Animal1\Tuesday\Animal1.ASF
:FULLY-SPECIFIED
:DEGREES
1529
root 10.7336 16.5961 -11.6075 30.5861 -0.462315 3.22326
lowerback 11.3947 -1.50072 0.0182275
upperback -3.75742 -2.03788 -0.228241
thorax -10.4748 -0.988104 0.156764
lowerneck -12.8532 0.567151 -5.70339
upperneck -0.581908 1.27203 10.0158
head 1.81233 0.955982 4.03784
rclavicle -1.63003e-014 6.06293e-015
rhumerus 52.7958 5.9786 -38.5931
rradius 70.7044
rwrist 7.76814
rhand -17.5536 -702.71
rfingers 7.12502
rthumb 8.70118 -12.5105
lclavicle -1.63003e-014 6.06293e-015
lhumerus 39.9911 -10.6528 47.6679
lradius 69.3845
lwrist -45.6657
lhand 0.520426 51.9027
lfingers 7.12502
lthumb 26.0888 1520.13
rfemur -49.748 6.1745 16.703
rtibia 32.2554
rfoot -6.9855 -25.5423
rtoes 6.88273
lfemur -49.1369 -18.3446 -3.17355
ltibia 22.8999
lfoot -4.65178 18.7458
ltoes -7.61784
1530
root 10.7276 16.6027 -11.5923 30.4428 -0.473823 3.46608
lowerback 11.2511 -1.54852 -0.217827
upperback -3.91821 -2.15063 -0.329372
thorax -10.5639 -1.03062 0.20215
lowerneck -12.397 0.564866 -5.74659
upperneck -0.481496 1.24979 10.0645
head 1.77194 0.936077 4.05387
rclavicle 1.10574e-014 3.62782e-015
rhumerus 53.2485 5.78638 -38.0129
rradius 69.4472
rwrist 7.7627
rhand -18.2113 -701.189
rfingers 7.12502
rthumb 8.0664 -11.0149
lclavicle 1.10574e-014 3.62782e-015
lhumerus 39.5161 -10.8389 46.9627
lradius 70.7407
lwrist -44.9984
lhand -0.0279731 52.0641
lfingers 7.12502
lthumb 25.5636 1520.37
rfemur -49.4558 6.42907 16.3212
rtibia 32.1257
rfoot -6.80626 -25.9625
rtoes 6.55976
lfemur -48.834 -18.9447 -3.0898
ltibia 22.5238
lfoot -4.25128 19.2829
ltoes -10.2707
1531
root 10.7179 16.6166 -11.5718 30.3467 -0.594346 3.60609
lowerback 10.9007 -1.53826 -0.496591
upperback -4.04204 -2.18647 -0.401583
thorax -10.4858 -1.03347 0.280004
lowerneck -12.1166 0.57038 -5.63392
upperneck -0.172129 1.21073 10.0087
head 1.82328 0.912266 4.01489
rclavicle 7.85199e-015 1.40143e-014
rhumerus 53.664 5.63371 -37.421
rradius 68.0303
rwrist 7.77054
rhand -18.4033 -700.772
rfingers 7.12502
rthumb 7.88106 -10.605
lclavicle 7.85199e-015 1.40143e-014
lhumerus 39.2041 -10.8716 46.2284
lradius 72.2369
lwrist -44.2207
lhand 0.0103943 52.3279
lfingers 7.12502
lthumb 25.6003 1520.63
rfemur -49.2161 6.86058 15.9387
rtibia 31.9792
rfoot -7.17426 -26.2588
rtoes 9.49507
lfemur -48.4837 -19.4153 -2.98379
ltibia 22.1095
lfoot -4.32858 19.9434
ltoes -10.0105
1532
root 10.7113 16.6338 -11.5493 30.1463 -0.798496 3.67887
lowerback 10.6481 -1.51247 -0.739372
upperback -4.14648 -2.19319 -0.457989
thorax -10.4449 -1.02356 0.351319
lowerneck -12.0102 0.547427 -5.50882
upperneck 0.341808 1.12555 9.91207
head 1.96655 0.871798 3.9629
rclavicle 3.53091e-014 2.75814e-015
rhumerus 54.22 5.58384 -36.677
rradius 66.2253
rwrist 7.58164
rhand -17.4152 -700.873
rfingers 7.12502
rthumb 8.83466 -10.6682
lclavicle 3.53091e-014 2.75814e-015
lhumerus 38.9834 -10.6918 45.5909
lradius 73.806
lwrist -43.8265
lhand 0.210834 52.5136
lfingers 7.12502
lthumb 25.7923 1520.79
rfemur -48.8462 7.29775 15.6585
rtibia 31.7665
rfoot -7.23577 -26.5348
rtoes 16.3687
lfemur -47.9842 -19.9143 -2.86171
ltibia 21.713
lfoot -4.68382 20.6183
ltoes -8.29933
1533
root 10.7115 16.6511 -11.5284 29.8272 -0.900326 3.62912
lowerback 10.5851 -1.48268 -0.698759
upperback -4.21729 -2.15126 -0.496086
thorax -10.4896 -1.00743 0.278712
lowerneck -11.9304 0.459624 -5.60181
upperneck 0.78931 0.983708 9.987
head 2.09787 0.807689 3.99706
rclavicle 2.73826e-014 -1.61513e-015
rhumerus 54.7532 5.61561 -35.5369
rradius 64.2825
rwrist 7.32667
rhand -15.9799 -700.752
rfingers 7.12502
rthumb 10.2195 -10.4839
lclavicle 2.73826e-014 -1.61513e-015
lhumerus 38.8557 -10.3392 45.0295
lradius 75.2325
lwrist -43.9318
lhand -0.730894 53.2191
lfingers 7.12502
lthumb 24.8901 1521.62
rfemur -48.2677 7.66019 15.5929
rtibia 31.48
rfoot -7.4361 -26.7821
rtoes 11.742
lfemur -47.4536 -20.5705 -2.52627
ltibia 21.3868
lfoot -5.07273 21.3327
ltoes -6.55952
1534
root 10.7156 16.672 -11.502 29.5827 -0.954593 3.50642
lowerback 10.311 -1.44873 -0.516221
upperback -4.22944 -2.07845 -0.522126
thorax -10.3481 -0.987322 0.126493
lowerneck -12.0305 0.398247 -5.84108
upperneck 1.2769 0.894273 10.2324
head 2.26551 0.779977 4.11325
rclavicle -1.11257e-014 -9.41742e-015
rhumerus 55.2072 5.59802 -34.2729
rradius 62.403
rwrist 7.12865
rhand -14.2651 -701.498
rfingers 7.12502
rthumb 11.8735 -11.1417
lclavicle -1.11257e-014 -9.41742e-015
lhumerus 38.8835 -9.77191 44.4412
lradius 76.486
lwrist -44.3153
lhand -2.13744 54.1467
lfingers 7.12502
lthumb 23.5416 1522.73
rfemur -47.7358 7.87894 15.6837
rtibia 31.1721
rfoot -7.0876 -27.0132
rtoes 8.58095
lfemur -47.0091 -21.1548 -2.15001
ltibia 21.102
lfoot -5.58779 21.9508
ltoes -4.20175
1535
root 10.7187 16.6892 -11.4703 29.4662 -1.22816 3.63986
lowerback 9.76676 -1.36251 -0.703654
upperback -4.25042 -1.997 -0.662319
thorax -10.0472 -0.944225 0.0519241
lowerneck -12.1125 0.345634 -5.93571
upperneck 1.71455 0.800618 10.4082
head 2.41678 0.747703 4.18339
rclavicle -4.46023e-015 -8.85834e-015
rhumerus 55.3994 5.62006 -32.9792
rradius 60.7957
rwrist 6.50044
rhand -11.9912 -703.269
rfingers 7.12502
rthumb 14.0655 -12.7733
lclavicle -4.46023e-015 -8.85834e-015
lhumerus 39.0385 -9.14863 43.9596
lradius 77.6269
lwrist -45.1368
lhand -3.09143 54.8107
lfingers 7.12502
lthumb 22.6262 1523.5
rfemur -47.3736 8.02067 15.4447
rtibia 30.8346
rfoot -6.19125 -27.0714
rtoes 6.69031
lfemur -46.6639 -21.7049 -2.10528
ltibia 20.8637
lfoot -6.35354 22.5757
ltoes -1.00508
1536
root 10.7187 16.7025 -11.4409 29.1939 -1.63144 3.8599
lowerback 9.48249 -1.22247 -1.08826
upperback -4.30325 -1.87657 -0.857955
thorax -9.93218 -0.869794 0.0305075
lowerneck -11.9127 0.257386 -5.93417
upperneck 2.00193 0.646996 10.5255
head 2.48378 0.674807 4.2118
rclavicle -2.37011e-014 -6.22988e-015
rhumerus 55.3601 5.9784 -31.6173
rradius 59.5118
rwrist 5.15339
rhand -9.90941 -705.254
rfingers 7.12502
rthumb 16.0709 -14.608
lclavicle -2.37011e-014 -6.22988e-015
lhumerus 39.2909 -8.53128 43.4956
lradius 78.5275
lwrist -45.9373
lhand -4.69069 55.8834
lfingers 7.12502
lthumb 21.0906 1524.76
rfemur -46.8272 8.28374 15.0504
rtibia 30.4367
rfoot -5.62513 -27.0188
rtoes 6.43256
lfemur -46.1761 -22.3726 -2.18712
ltibia 20.7037
lfoot -6.80273 23.3662
ltoes 0.463935
1537
root 10.7189 16.7205 -11.4096 28.6867 -1.84671 3.79154
lowerback 9.51377 -1.07646 -1.09247
upperback -4.31457 -1.69196 -0.97315
thorax -9.96795 -0.784419 -0.122649
lowerneck -11.5666 0.164911 -6.03696
upperneck 2.11941 0.505653 10.7133
head 2.47551 0.603193 4.27711
rclavicle 2.23633e-015 -1.20203e-014
rhumerus 55.1584 6.51576 -29.9648
rradius 58.6557
rwrist 3.31352
rhand -8.37348 -706.507
rfingers 7.12502
rthumb 17.5495 -15.7348
lclavicle 2.23633e-015 -1.20203e-014
lhumerus 39.6873 -7.81035 42.8355
lradius 79.4535
lwrist -46.3911
lhand -6.87569 57.269
lfingers 7.12502
lthumb 18.9904 1526.36
rfemur -45.945 8.59288 15.0687
rtibia 30.0465
rfoot -5.27556 -27.0502
rtoes 7.92702
lfemur -45.4182 -23.0312 -2.05924
ltibia 20.5358
lfoot -6.77785 24.0846
ltoes -0.294223
1538
root 10.7179 16.7353 -11.3726 28.258 -1.99215 3.55573
lowerback 9.42331 -0.899169 -0.888294
upperback -4.31361 -1.43153 -1.05955
thorax -9.92126 -0.675574 -0.378138
lowerneck -11.2202 0.0723861 -6.15402
upperneck 2.14846 0.371169 10.9215
head 2.44054 0.533968 4.35106
rclavicle -9.81499e-015 -8.06942e-015
rhumerus 54.6841 6.94187 -28.2542
rradius 58.2671
rwrist 1.84454
rhand -7.31209 -706.448
rfingers 7.12502
rthumb 18.5706 -15.5812
lclavicle -9.81499e-015 -8.06942e-015
lhumerus 40.2833 -6.88657 42.2833
lradius 80.2871
lwrist -46.9024
lhand -8.6178 57.9208
lfingers 7.12502
lthumb 17.3143 1527.17
rfemur -45.1344 8.94785 15.2788
rtibia 29.7199
rfoot -4.68441 -27.158
rtoes 10.0168
lfemur -44.6626 -23.5463 -1.78602
ltibia 20.2608
lfoot -6.74556 24.7233
ltoes -0.528419
